<svg width="93" height="25" viewBox="0 0 93 25" fill="none" xmlns="http://www.w3.org/2000/svg">
<path d="M7.124 14.006V14.526H2.158C1.352 14.526 0.806 15.124 0.806 16.086C0.806 16.97 1.326 17.516 2.158 17.464C6.136 17.074 9.698 17.126 13.78 17.594V18.062C9.802 17.594 6.292 17.542 2.418 17.906C1.456 17.984 0.806 18.79 0.806 19.882V22.508C0.806 23.6 1.456 24.328 2.444 24.328H21.19C22.048 24.328 22.594 23.704 22.594 22.768V22.742C22.594 21.806 22.048 21.26 21.216 21.338C17.238 21.702 13.676 21.65 9.62 21.182V20.688C13.598 21.156 17.108 21.208 20.982 20.844C21.944 20.766 22.594 19.96 22.594 18.868V16.346C22.594 15.254 21.944 14.526 20.956 14.526H16.276V14.006H21.06C21.996 14.006 22.594 13.33 22.594 12.264C22.594 11.224 21.996 10.548 21.06 10.548H2.366C1.43 10.548 0.806 11.224 0.806 12.29C0.806 13.33 1.43 14.006 2.366 14.006H7.124ZM22.568 8.338C22.568 7.246 21.944 6.518 20.956 6.492C18.85 6.44 16.744 6.258 16.406 5.79H20.982C21.944 5.79 22.568 5.088 22.568 3.996C22.568 2.93 21.944 2.228 20.982 2.228H17.186C16.172 2.228 15.626 0.667998 14.638 0.667998H8.502C7.488 0.667998 6.942 2.228 5.954 2.228H2.392C1.43 2.228 0.806 2.93 0.806 4.022C0.806 5.088 1.43 5.79 2.392 5.79H6.89C6.552 6.258 4.472 6.44 2.418 6.492C1.43 6.518 0.806 7.246 0.806 8.364C0.806 9.456 1.456 10.184 2.418 10.184C6.136 10.21 9.828 10.08 11.648 8.494C13.52 10.028 17.238 10.184 20.956 10.184C21.918 10.184 22.568 9.456 22.568 8.364V8.338ZM46.0042 3.06C46.0042 1.968 45.3542 1.24 44.3662 1.24H39.5822C38.7762 1.24 38.2562 1.838 38.2562 2.748V2.8H37.7102C36.7222 2.8 36.0722 3.528 36.0722 4.62V7.298C35.4482 6.752 35.1362 5.842 35.1362 4.386V3.06C35.1362 1.968 34.4862 1.24 33.4982 1.24H28.3242C27.3362 1.24 26.6862 1.968 26.6862 3.06V4.386C26.6862 5.842 26.3742 6.752 25.7502 7.298C24.6062 8.286 24.2162 8.91 24.2162 9.742V12.368C24.2162 13.486 24.8922 14.214 25.8542 14.084C27.8302 13.85 29.6762 13.122 30.8982 11.796C32.1202 13.096 33.9922 13.824 35.9682 14.084C36.9302 14.214 37.6062 13.486 37.6062 12.368V9.352H38.2562V12.29C38.2562 13.382 38.9062 14.11 39.8942 14.11H44.3662C45.3542 14.11 46.0042 13.382 46.0042 12.29V3.06ZM46.0042 16.554C46.0042 15.462 45.3542 14.734 44.3662 14.734H25.8542C24.8662 14.734 24.2162 15.462 24.2162 16.554V18.92C24.2162 20.012 24.8662 20.74 25.8542 20.74H38.3602V22.508C38.3602 23.6 39.0102 24.328 39.9982 24.328H44.3662C45.3542 24.328 46.0042 23.6 46.0042 22.508V16.554ZM69.4143 3.06C69.4143 1.968 68.7643 1.24 67.7763 1.24H63.3043C62.3163 1.24 61.6663 1.968 61.6663 3.06V22.508C61.6663 23.6 62.3163 24.328 63.3043 24.328H67.7763C68.7643 24.328 69.4143 23.6 69.4143 22.508V3.06ZM58.1563 19.076H59.2483C60.2363 19.076 60.8863 18.348 60.8863 17.256V14.058C60.8863 12.966 60.2363 12.238 59.2483 12.238H49.2643C48.2763 12.238 47.6263 12.966 47.6263 14.058V17.256C47.6263 18.348 48.2763 19.076 49.2643 19.076H50.3823V22.508C50.3823 23.6 51.0323 24.328 52.0203 24.328H56.5183C57.4803 24.328 58.1563 23.6 58.1563 22.508V19.076ZM60.8863 3.06C60.8863 1.968 60.2363 1.24 59.2483 1.24H49.2643C48.2763 1.24 47.6263 1.968 47.6263 3.06V6.232C47.6263 7.324 48.2763 8.052 49.2643 8.052H53.1123V9.664C53.1123 10.756 53.7623 11.484 54.7503 11.484H59.2483C60.2363 11.484 60.8863 10.756 60.8863 9.664V3.06ZM92.8245 3.06C92.8245 1.968 92.1745 1.24 91.1865 1.24H86.7145C85.7265 1.24 85.0765 1.968 85.0765 3.06V15.852C85.0765 16.944 85.7265 17.672 86.7145 17.672H91.1865C92.1745 17.672 92.8245 16.944 92.8245 15.852V3.06ZM92.8245 20.142C92.8245 19.05 92.1745 18.322 91.1865 18.322H79.4605C77.8745 18.322 77.7445 15.462 76.1325 15.462H72.6745C71.6865 15.462 71.0365 16.19 71.0365 17.282V22.508C71.0365 23.6 71.6865 24.328 72.6745 24.328H91.1865C92.1745 24.328 92.8245 23.6 92.8245 22.508V20.142ZM84.4265 9.3C84.4265 8.728 84.1145 8.26 83.5165 8.026C82.4765 7.584 81.9565 6.596 81.9565 4.724V3.06C81.9565 1.968 81.3065 1.24 80.3185 1.24H75.1445C74.1565 1.24 73.5065 1.968 73.5065 3.06V4.724C73.5065 6.596 72.9865 7.584 71.9465 8.026C71.3485 8.26 71.0365 8.728 71.0365 9.3V13.226C71.0365 14.344 71.7125 15.072 72.6745 14.942C74.6505 14.708 76.4965 13.98 77.7185 12.654C78.9405 13.954 80.8125 14.682 82.7885 14.942C83.7505 15.072 84.4265 14.344 84.4265 13.226V9.3Z" fill="#427FF7"/>
</svg>
