<svg width="36" height="36" viewBox="0 0 36 36" fill="none" xmlns="http://www.w3.org/2000/svg">
<rect x="3" y="5" width="30" height="15" fill="currentColor"/>
<rect x="9" y="20" width="3" height="10" fill="currentColor"/>
<rect x="24" y="20" width="3" height="10" fill="currentColor"/>
<path d="M10.0915 8.79H6.03148V9.76H8.85148C8.82148 10.13 8.77148 10.5 8.66148 10.85C7.65148 10.93 6.61148 11 5.60148 11.07C5.65148 11.41 5.70148 11.74 5.76148 12.08L8.29148 11.81C7.69148 12.97 6.67148 13.89 5.42148 14.46L6.09148 15.35C8.74148 13.97 10.0815 11.78 10.0915 8.79ZM12.9315 16.79V7.88H11.7615V11.34H10.0715V12.32H11.7615V16.79H12.9315ZM21.3338 13.13V7.88H20.1738V13.13H21.3338ZM18.6138 12.4V8.52H14.4238V12.4H18.6138ZM17.4538 11.49H15.5938V9.42H17.4538V11.49ZM21.4038 14.98C21.4038 13.87 20.2838 13.17 18.3338 13.17C16.4138 13.17 15.3038 13.87 15.3038 14.98C15.3038 16.07 16.4138 16.78 18.3338 16.78C20.2838 16.78 21.4038 16.07 21.4038 14.98ZM18.3338 14.11C19.5238 14.11 20.1938 14.44 20.1938 14.98C20.1938 15.52 19.5238 15.84 18.3338 15.84C17.1838 15.84 16.4938 15.52 16.4938 14.98C16.4938 14.44 17.1838 14.11 18.3338 14.11ZM27.0762 14.83V13.3H30.4362V12.38H22.3862V13.3H25.9062V14.83H27.0762ZM29.4962 16.56V15.63H24.5862V14H23.4162V16.56H29.4962ZM30.3362 10.83C29.3862 10.54 28.8762 9.62 28.8762 8.76V8.24H27.7462V8.76C27.7462 9.65 27.1362 10.7 26.1762 11.05L26.8662 11.86C27.4262 11.62 28.0762 10.99 28.3162 10.42C28.5762 10.92 29.2662 11.53 29.7162 11.67L30.3362 10.83ZM26.3762 10.56C25.6162 10.26 25.2462 9.63 25.2462 8.8V8.3H24.1062V8.8C24.1062 9.64 23.5562 10.52 22.5262 10.89L23.2062 11.74C23.7962 11.51 24.3962 10.9 24.6662 10.4C24.8662 10.76 25.3462 11.2 25.7262 11.4L26.3762 10.56Z" fill="white"/>
</svg>
